# xmcd
#
# Track frame offsets: 
#        150
#        14643
#        30652
#        43921
#        65715
#        79613
#        99629
#        117454
#        132298
#        148601
#        162256
#        186566
#        200787
#        222375
#        236047
#        244787
#        254407
#        272350
#        288552
#
# Disc length: 4364 seconds
#
# Revision: 0
# Processed by: cddbd v1.5.1PL2 Copyright (c) Steve Scherf et al.
# Submitted via: ExactAudioCopy v0.95b3
#
DISCID=2f110a13
DTITLE=Christie Hennessy - Stories for Sale
DYEAR=2005
DGENRE=Easy Listening
TTITLE0=Just Another Man
TTITLE1=Remeber Me
TTITLE2=Better that Way
TTITLE3=Cowboys
TTITLE4=History
TTITLE5=After all This Time
TTITLE6=Denny Street
TTITLE7=Down by the River
TTITLE8=Maybe
TTITLE9=All My Love
TTITLE10=Sitting Inside a Window
TTITLE11=Soho Square
TTITLE12=I am a Star
TTITLE13=I got the Sun
TTITLE14=We Build our Houses
TTITLE15=Happy Man
TTITLE16=Messenger Boy
TTITLE17=Remember Me
TTITLE18=Interview
EXTD=
EXTT0=
EXTT1=
EXTT2=
EXTT3=
EXTT4=
EXTT5=
EXTT6=
EXTT7=
EXTT8=
EXTT9=
EXTT10=
EXTT11=
EXTT12=
EXTT13=
EXTT14=
EXTT15=
EXTT16=
EXTT17=
EXTT18=
PLAYORDER=
